<svg width="40" height="40" viewBox="0 0 40 40" fill="none" xmlns="http://www.w3.org/2000/svg">
<g clip-path="url(#clip0_101_102)">
<path d="M23.8472 7.28536C23.8472 9.45075 22.0918 11.2061 19.9264 11.2061C17.761 11.2061 16.0056 9.45075 16.0056 7.28536C16.0056 5.11997 17.761 3.36458 19.9264 3.36458C22.0918 3.36458 23.8472 5.11997 23.8472 7.28536Z" stroke="white" stroke-width="1.5"/>
<path d="M31.7699 19.9616L31.7705 19.9618L36.1235 20.8698C36.1236 20.8698 36.1236 20.8698 36.1237 20.8698C37.6312 21.185 38.6137 22.6841 38.2994 24.1992L37.2045 29.4212L37.2042 29.4229C36.8921 30.929 35.3928 31.9097 33.8848 31.5961C33.8846 31.596 33.8844 31.596 33.8841 31.5959L32.4843 31.3026L31.9953 31.2001L31.7123 31.6119C29.7263 34.5029 25.2948 36.6355 20.0004 36.6355C16.5524 36.6355 13.3382 35.7452 10.9343 34.1696L10.9339 34.1693C9.78648 33.4183 8.90659 32.5508 8.27767 31.6214L7.99559 31.2046L7.50294 31.3077L6.12475 31.596C6.12469 31.5961 6.12463 31.5961 6.12457 31.5961C4.61536 31.9113 3.11564 30.9295 2.80349 29.4229L2.80318 29.4214L1.70983 24.1985C1.7098 24.1984 1.70978 24.1983 1.70975 24.1982C1.39428 22.6835 2.37658 21.1849 3.88232 20.8698C3.8824 20.8698 3.88248 20.8698 3.88256 20.8698L8.23874 19.9618L8.2393 19.9617C9.40206 19.7184 10.5625 20.2532 11.1784 21.2187L11.5454 21.7941L12.1527 21.4829C12.8737 21.1134 13.6354 20.7963 14.4467 20.5378L14.9691 20.3714V19.8232V17.2209C14.9691 15.6756 16.2307 14.4107 17.7775 14.4107H22.2286C23.7657 14.4107 25.0332 15.6761 25.0318 17.2203V17.2209V19.8095V20.3563L25.5524 20.5236C26.3757 20.7882 27.1461 21.1058 27.8595 21.4723L28.466 21.7838L28.8337 21.2097C29.4487 20.2497 30.6072 19.7181 31.7699 19.9616ZM9.41992 30.9044L8.18233 31.164L9.00362 32.1255C9.56705 32.7851 10.2623 33.3924 11.0887 33.9324C13.4879 35.5125 16.6591 36.352 19.9986 36.352C24.6623 36.352 28.8384 34.699 31.0117 32.1258L31.8229 31.1653L30.5924 30.9077L29.5265 30.6846L29.5254 30.6844C28.0173 30.3709 27.0363 28.8729 27.3485 27.3613C27.3485 27.3608 27.3486 27.3604 27.3487 27.36L28.3423 22.6118L28.4576 22.0611L27.9611 21.7963C27.3586 21.475 26.7132 21.1944 26.0317 20.9517L25.0301 20.5949V21.6582V22.5594C25.0301 24.0997 23.7651 25.3662 22.2267 25.3662H17.7757C16.2313 25.3662 14.9672 24.1004 14.9672 22.5594V21.7029V20.6356L13.9631 20.9972C13.2896 21.2398 12.655 21.5244 12.0512 21.849L11.5576 22.1143L11.6721 22.6629L12.6523 27.3594L12.6523 27.3595C12.9676 28.87 11.9863 30.3689 10.477 30.6826L10.4756 30.6829L9.41992 30.9044Z" stroke="white" stroke-width="1.5"/>
<path d="M39.25 13.4256C39.25 15.591 37.4946 17.3464 35.3292 17.3464C33.1638 17.3464 31.4084 15.591 31.4084 13.4256C31.4084 11.2602 33.1638 9.50484 35.3292 9.50484C37.4946 9.50484 39.25 11.2602 39.25 13.4256Z" stroke="white" stroke-width="1.5"/>
<path d="M3.86861 9.58666L3.86842 9.5867C1.75057 10.029 0.390312 12.1068 0.834087 14.2262L0.834205 14.2268C1.27656 16.3475 3.35407 17.7067 5.47581 17.2643L3.86861 9.58666ZM3.86861 9.58666C5.99052 9.14297 8.06575 10.502 8.51345 12.6208M3.86861 9.58666L8.51345 12.6208M8.51345 12.6208C8.95118 14.7426 7.59507 16.8205 5.47598 17.2642L8.51345 12.6208Z" stroke="white" stroke-width="1.5"/>
</g>
<defs>
<clipPath id="clip0_101_102">
<rect width="40" height="40" fill="white"/>
</clipPath>
</defs>
</svg>
