<svg width="40" height="39" viewBox="0 0 40 39" fill="none" xmlns="http://www.w3.org/2000/svg">
<g clip-path="url(#clip0_101_112)">
<path d="M16.4686 27.1817H13.2817C12.8503 27.1817 12.5005 26.8433 12.5005 26.4259C12.5005 26.0085 12.8503 25.67 13.2817 25.67H16.4686C16.9 25.67 17.2499 26.0085 17.2499 26.4259C17.2499 26.8433 16.9 27.1817 16.4686 27.1817Z" fill="#FFF8F8"/>
<path d="M26.7184 27.1817H23.5315C23.1001 27.1817 22.7502 26.8433 22.7502 26.4259C22.7502 26.0085 23.1 25.67 23.5315 25.67H26.7184C27.1498 25.67 27.4996 26.0085 27.4996 26.4259C27.4996 26.8433 27.1498 27.1817 26.7184 27.1817Z" fill="#FFF8F8"/>
<path d="M19.9858 27.1816C19.6599 27.1816 19.3597 26.9778 19.2504 26.6803C19.1426 26.3869 19.2344 26.051 19.4805 25.8496C19.7373 25.6394 20.1119 25.6141 20.3978 25.7843C20.6713 25.9472 20.8142 26.2686 20.7515 26.5731C20.6796 26.9224 20.354 27.1816 19.9858 27.1816Z" fill="#FFF8F8"/>
<path d="M24.5345 30.1598H15.4656C15.0342 30.1598 14.6843 29.8213 14.6843 29.4039C14.6843 28.9865 15.0341 28.648 15.4656 28.648H24.5345C24.966 28.648 25.3158 28.9865 25.3158 29.4039C25.3158 29.8213 24.966 30.1598 24.5345 30.1598Z" fill="#FFF8F8"/>
<path d="M23.322 17.8708C24.3717 16.9773 25.0353 15.6685 25.0353 14.2125C25.0353 11.526 22.7765 9.34055 20.0001 9.34055C17.2237 9.34055 14.965 11.526 14.965 14.2125C14.965 15.6685 15.6285 16.9773 16.6782 17.8708C14.9045 18.5262 13.6414 20.1899 13.6414 22.1336V23.4296C13.6414 23.847 13.9911 24.1855 14.4226 24.1855H25.5777C26.0091 24.1855 26.3589 23.847 26.3589 23.4296V22.1336C26.3589 20.1899 25.0957 18.5262 23.322 17.8708ZM20.0001 10.8523C21.915 10.8523 23.4728 12.3596 23.4728 14.2125C23.4728 16.0653 21.915 17.5726 20.0001 17.5726C18.0853 17.5726 16.5274 16.0653 16.5274 14.2125C16.5274 12.3596 18.0852 10.8523 20.0001 10.8523ZM24.7964 22.6736H15.2038V22.1336C15.2038 20.4522 16.6175 19.0843 18.3552 19.0843H21.6449C23.3826 19.0843 24.7964 20.4522 24.7964 22.1336V22.6736H24.7964Z" fill="#FFF8F8"/>
<path d="M9.43015 37.8943C8.82968 37.8943 8.23639 37.7115 7.72882 37.3546C6.8971 36.77 6.45358 35.8292 6.54249 34.8381L7.42803 24.9632L0.713499 17.478C0.0395923 16.7268 -0.173064 15.7136 0.144671 14.7676C0.462249 13.8216 1.24983 13.1229 2.25123 12.8984L12.2301 10.6619L17.5118 2.16922C18.0419 1.31695 18.9721 0.80809 20 0.80809C21.028 0.80809 21.9581 1.31688 22.4882 2.16922L27.7698 10.6619L37.7488 12.8984C38.7502 13.1229 39.5376 13.8216 39.8553 14.7676C40.1731 15.7137 39.9605 16.7269 39.2866 17.478L32.572 24.9632L33.4575 34.8382C33.5464 35.8292 33.1029 36.77 32.2712 37.3546C31.4395 37.9392 30.3778 38.0565 29.4315 37.6686L20 33.802L10.5685 37.6686C10.1998 37.8198 9.81343 37.8943 9.43015 37.8943ZM20 2.31994C19.5251 2.31994 19.0954 2.55502 18.8505 2.94876L13.3982 11.7158C13.2891 11.8911 13.1112 12.0162 12.9051 12.0624L2.60381 14.3712C2.14116 14.4749 1.77733 14.7977 1.63061 15.2348C1.48389 15.6719 1.58209 16.1401 1.89342 16.4872L8.82499 24.2142C8.96366 24.3688 9.03155 24.5711 9.01335 24.775L8.09913 34.9689C8.05803 35.4269 8.26296 35.8615 8.64718 36.1316C9.03124 36.4016 9.52163 36.456 9.9589 36.2766L19.6952 32.285C19.89 32.2052 20.1098 32.2052 20.3047 32.285L30.0409 36.2766C30.4781 36.4558 30.9684 36.4016 31.3527 36.1316C31.737 35.8615 31.9419 35.4269 31.9007 34.969L30.9865 24.775C30.9683 24.5711 31.0362 24.3688 31.1748 24.2142L38.1065 16.4872C38.4178 16.1401 38.516 15.6719 38.3692 15.2348C38.2224 14.7977 37.8586 14.4749 37.396 14.3712L27.0947 12.0625C26.8886 12.0163 26.7107 11.8912 26.6016 11.7158L21.1493 2.94884C20.9045 2.55502 20.4749 2.31994 20 2.31994Z" fill="#FFF8F8"/>
</g>
<defs>
<clipPath id="clip0_101_112">
<rect width="40" height="38.7014" fill="white"/>
</clipPath>
</defs>
</svg>
